<svg width="35" height="35" viewBox="0 0 35 35" fill="none" xmlns="http://www.w3.org/2000/svg">
<g id="Instagram" clip-path="url(#clip0_7_2434)">
<path id="Icon" d="M25.5208 9.47917H25.5354M10.2083 2.91667H24.7917C28.8187 2.91667 32.0833 6.18126 32.0833 10.2083V24.7917C32.0833 28.8187 28.8187 32.0833 24.7917 32.0833H10.2083C6.18126 32.0833 2.91667 28.8187 2.91667 24.7917V10.2083C2.91667 6.18126 6.18126 2.91667 10.2083 2.91667ZM23.3333 16.5813C23.5133 17.7949 23.306 19.0345 22.7409 20.1236C22.1758 21.2126 21.2817 22.0958 20.1857 22.6474C19.0897 23.1991 17.8477 23.3911 16.6364 23.1962C15.425 23.0012 14.3059 22.4293 13.4383 21.5617C12.5707 20.6941 11.9988 19.575 11.8039 18.3636C11.6089 17.1523 11.8009 15.9103 12.3526 14.8143C12.9042 13.7183 13.7874 12.8242 14.8764 12.2591C15.9655 11.694 17.2051 11.4867 18.4188 11.6667C19.6568 11.8503 20.8029 12.4271 21.6879 13.3121C22.5729 14.1971 23.1498 15.3432 23.3333 16.5813Z" stroke="#F3F3F3" stroke-width="4" stroke-linecap="round" stroke-linejoin="round"/>
</g>
<defs>
<clipPath id="clip0_7_2434">
<rect width="35" height="35" fill="white"/>
</clipPath>
</defs>
</svg>
