<svg width="40" height="40" viewBox="0 0 40 40" fill="none" xmlns="http://www.w3.org/2000/svg">
<g id="person">
<g id="icon">
<g filter="url(#filter0_i_12_104)">
<path d="M20 20C18.1667 20 16.5972 19.3472 15.2917 18.0417C13.9861 16.7361 13.3333 15.1667 13.3333 13.3333C13.3333 11.5 13.9861 9.93056 15.2917 8.62501C16.5972 7.31945 18.1667 6.66667 20 6.66667C21.8333 6.66667 23.4028 7.31945 24.7083 8.62501C26.0139 9.93056 26.6667 11.5 26.6667 13.3333C26.6667 15.1667 26.0139 16.7361 24.7083 18.0417C23.4028 19.3472 21.8333 20 20 20ZM6.66666 33.3333V28.6667C6.66666 27.7222 6.90972 26.8542 7.39583 26.0625C7.88194 25.2708 8.52778 24.6667 9.33333 24.25C11.0556 23.3889 12.8056 22.7431 14.5833 22.3125C16.3611 21.8819 18.1667 21.6667 20 21.6667C21.8333 21.6667 23.6389 21.8819 25.4167 22.3125C27.1944 22.7431 28.9444 23.3889 30.6667 24.25C31.4722 24.6667 32.1181 25.2708 32.6042 26.0625C33.0903 26.8542 33.3333 27.7222 33.3333 28.6667V33.3333H6.66666ZM10 30H30V28.6667C30 28.3611 29.9236 28.0833 29.7708 27.8333C29.6181 27.5833 29.4167 27.3889 29.1667 27.25C27.6667 26.5 26.1528 25.9375 24.625 25.5625C23.0972 25.1875 21.5556 25 20 25C18.4444 25 16.9028 25.1875 15.375 25.5625C13.8472 25.9375 12.3333 26.5 10.8333 27.25C10.5833 27.3889 10.3819 27.5833 10.2292 27.8333C10.0764 28.0833 10 28.3611 10 28.6667V30ZM20 16.6667C20.9167 16.6667 21.7014 16.3403 22.3542 15.6875C23.0069 15.0347 23.3333 14.25 23.3333 13.3333C23.3333 12.4167 23.0069 11.6319 22.3542 10.9792C21.7014 10.3264 20.9167 10 20 10C19.0833 10 18.2986 10.3264 17.6458 10.9792C16.9931 11.6319 16.6667 12.4167 16.6667 13.3333C16.6667 14.25 16.9931 15.0347 17.6458 15.6875C18.2986 16.3403 19.0833 16.6667 20 16.6667Z" fill="white"/>
</g>
<path d="M9.5 30V30.5H10H30H30.5V30V28.6667C30.5 28.2732 30.4003 27.9046 30.1975 27.5726C30.0008 27.2508 29.7369 26.9948 29.4095 26.8129L29.4 26.8077L29.3903 26.8028C27.8592 26.0372 26.3104 25.4613 24.7442 25.0769C23.1778 24.6925 21.5962 24.5 20 24.5C18.4038 24.5 16.8221 24.6925 15.2558 25.0769C13.6896 25.4613 12.1408 26.0372 10.6097 26.8028L10.6 26.8077L10.5905 26.8129C10.2631 26.9948 9.99917 27.2508 9.80252 27.5726C9.59966 27.9046 9.5 28.2732 9.5 28.6667V30ZM20 19.5C18.3003 19.5 16.8578 18.9007 15.6452 17.6881C14.4327 16.4756 13.8333 15.033 13.8333 13.3333C13.8333 11.6337 14.4327 10.1911 15.6452 8.97856C16.8578 7.76602 18.3003 7.16667 20 7.16667C21.6997 7.16667 23.1422 7.76602 24.3548 8.97856C25.5673 10.1911 26.1667 11.6337 26.1667 13.3333C26.1667 15.033 25.5673 16.4756 24.3548 17.6881C23.1422 18.9007 21.6997 19.5 20 19.5ZM7.16666 32.8333V28.6667C7.16666 27.813 7.38498 27.0357 7.82192 26.3241C8.26101 25.609 8.83877 25.0694 9.56003 24.6957C11.2493 23.8513 12.9628 23.2194 14.701 22.7985C16.4402 22.3773 18.2062 22.1667 20 22.1667C21.7938 22.1667 23.5598 22.3773 25.299 22.7985C27.0372 23.2194 28.7507 23.8513 30.44 24.6957C31.1612 25.0694 31.739 25.6091 32.1781 26.3241C32.615 27.0357 32.8333 27.813 32.8333 28.6667V32.8333H7.16666ZM20 17.1667C21.0503 17.1667 21.9619 16.7869 22.7077 16.0411C23.4535 15.2953 23.8333 14.3837 23.8333 13.3333C23.8333 12.283 23.4535 11.3714 22.7077 10.6256C21.9619 9.87982 21.0503 9.50001 20 9.50001C18.9497 9.50001 18.0381 9.87982 17.2923 10.6256C16.5465 11.3714 16.1667 12.283 16.1667 13.3333C16.1667 14.3837 16.5465 15.2953 17.2923 16.0411C18.0381 16.7869 18.9497 17.1667 20 17.1667Z" stroke="white"/>
<path d="M9.5 30V30.5H10H30H30.5V30V28.6667C30.5 28.2732 30.4003 27.9046 30.1975 27.5726C30.0008 27.2508 29.7369 26.9948 29.4095 26.8129L29.4 26.8077L29.3903 26.8028C27.8592 26.0372 26.3104 25.4613 24.7442 25.0769C23.1778 24.6925 21.5962 24.5 20 24.5C18.4038 24.5 16.8221 24.6925 15.2558 25.0769C13.6896 25.4613 12.1408 26.0372 10.6097 26.8028L10.6 26.8077L10.5905 26.8129C10.2631 26.9948 9.99917 27.2508 9.80252 27.5726C9.59966 27.9046 9.5 28.2732 9.5 28.6667V30ZM20 19.5C18.3003 19.5 16.8578 18.9007 15.6452 17.6881C14.4327 16.4756 13.8333 15.033 13.8333 13.3333C13.8333 11.6337 14.4327 10.1911 15.6452 8.97856C16.8578 7.76602 18.3003 7.16667 20 7.16667C21.6997 7.16667 23.1422 7.76602 24.3548 8.97856C25.5673 10.1911 26.1667 11.6337 26.1667 13.3333C26.1667 15.033 25.5673 16.4756 24.3548 17.6881C23.1422 18.9007 21.6997 19.5 20 19.5ZM7.16666 32.8333V28.6667C7.16666 27.813 7.38498 27.0357 7.82192 26.3241C8.26101 25.609 8.83877 25.0694 9.56003 24.6957C11.2493 23.8513 12.9628 23.2194 14.701 22.7985C16.4402 22.3773 18.2062 22.1667 20 22.1667C21.7938 22.1667 23.5598 22.3773 25.299 22.7985C27.0372 23.2194 28.7507 23.8513 30.44 24.6957C31.1612 25.0694 31.739 25.6091 32.1781 26.3241C32.615 27.0357 32.8333 27.813 32.8333 28.6667V32.8333H7.16666ZM20 17.1667C21.0503 17.1667 21.9619 16.7869 22.7077 16.0411C23.4535 15.2953 23.8333 14.3837 23.8333 13.3333C23.8333 12.283 23.4535 11.3714 22.7077 10.6256C21.9619 9.87982 21.0503 9.50001 20 9.50001C18.9497 9.50001 18.0381 9.87982 17.2923 10.6256C16.5465 11.3714 16.1667 12.283 16.1667 13.3333C16.1667 14.3837 16.5465 15.2953 17.2923 16.0411C18.0381 16.7869 18.9497 17.1667 20 17.1667Z" stroke="white"/>
</g>
</g>
<defs>
<filter id="filter0_i_12_104" x="6.66666" y="6.66667" width="26.6667" height="30.6667" filterUnits="userSpaceOnUse" color-interpolation-filters="sRGB">
<feFlood flood-opacity="0" result="BackgroundImageFix"/>
<feBlend mode="normal" in="SourceGraphic" in2="BackgroundImageFix" result="shape"/>
<feColorMatrix in="SourceAlpha" type="matrix" values="0 0 0 0 0 0 0 0 0 0 0 0 0 0 0 0 0 0 127 0" result="hardAlpha"/>
<feOffset dy="4"/>
<feGaussianBlur stdDeviation="2"/>
<feComposite in2="hardAlpha" operator="arithmetic" k2="-1" k3="1"/>
<feColorMatrix type="matrix" values="0 0 0 0 0 0 0 0 0 0 0 0 0 0 0 0 0 0 0.25 0"/>
<feBlend mode="normal" in2="shape" result="effect1_innerShadow_12_104"/>
</filter>
</defs>
</svg>
